<mxfile host="Electron" agent="Mozilla/5.0 (Windows NT 10.0; Win64; x64) AppleWebKit/537.36 (KHTML, like Gecko) draw.io/24.7.17 Chrome/128.0.6613.36 Electron/32.0.1 Safari/537.36" version="24.7.17">
  <diagram name="Stránka-1" id="J8WOoDS_pKdRZOd-JtYO">
    <mxGraphModel dx="2417" dy="1095" grid="1" gridSize="10" guides="1" tooltips="1" connect="1" arrows="1" fold="1" page="1" pageScale="1" pageWidth="827" pageHeight="1169" math="0" shadow="0">
      <root>
        <mxCell id="0" />
        <mxCell id="1" parent="0" />
        <mxCell id="FXdh6BhFldK_UIfGFSgS-1" value="Pořadatel" style="shape=umlActor;verticalLabelPosition=bottom;verticalAlign=top;html=1;outlineConnect=0;" parent="1" vertex="1">
          <mxGeometry x="100" y="533" width="40" height="70" as="geometry" />
        </mxCell>
        <mxCell id="FXdh6BhFldK_UIfGFSgS-3" value="Nereg. uživatel" style="shape=umlActor;verticalLabelPosition=bottom;verticalAlign=top;html=1;outlineConnect=0;" parent="1" vertex="1">
          <mxGeometry x="120" y="40" width="40" height="70" as="geometry" />
        </mxCell>
        <mxCell id="FXdh6BhFldK_UIfGFSgS-5" value="zobrazit konference" style="ellipse;whiteSpace=wrap;html=1;" parent="1" vertex="1">
          <mxGeometry x="320" y="230" width="120" height="35" as="geometry" />
        </mxCell>
        <mxCell id="FXdh6BhFldK_UIfGFSgS-7" value="" style="endArrow=classic;html=1;rounded=0;exitX=1;exitY=0.3333333333333333;exitDx=0;exitDy=0;exitPerimeter=0;entryX=0;entryY=1;entryDx=0;entryDy=0;" parent="1" source="FXdh6BhFldK_UIfGFSgS-43" target="FXdh6BhFldK_UIfGFSgS-5" edge="1">
          <mxGeometry width="50" height="50" relative="1" as="geometry">
            <mxPoint x="170" y="90" as="sourcePoint" />
            <mxPoint x="220" y="40" as="targetPoint" />
          </mxGeometry>
        </mxCell>
        <mxCell id="FXdh6BhFldK_UIfGFSgS-11" value="registrovat se" style="ellipse;whiteSpace=wrap;html=1;" parent="1" vertex="1">
          <mxGeometry x="280" y="50" width="120" height="35" as="geometry" />
        </mxCell>
        <mxCell id="FXdh6BhFldK_UIfGFSgS-12" value="" style="endArrow=classic;html=1;rounded=0;exitX=1;exitY=0.3333333333333333;exitDx=0;exitDy=0;exitPerimeter=0;entryX=0;entryY=0.5;entryDx=0;entryDy=0;" parent="1" source="FXdh6BhFldK_UIfGFSgS-3" target="FXdh6BhFldK_UIfGFSgS-11" edge="1">
          <mxGeometry width="50" height="50" relative="1" as="geometry">
            <mxPoint x="170" y="73" as="sourcePoint" />
            <mxPoint x="230" y="50" as="targetPoint" />
          </mxGeometry>
        </mxCell>
        <mxCell id="FXdh6BhFldK_UIfGFSgS-13" value="rezervovat vstupenku/y na konferenci" style="ellipse;whiteSpace=wrap;html=1;" parent="1" vertex="1">
          <mxGeometry x="-20" y="225" width="260" height="40" as="geometry" />
        </mxCell>
        <mxCell id="FXdh6BhFldK_UIfGFSgS-14" value="" style="endArrow=classic;html=1;rounded=0;exitX=0;exitY=0.3333333333333333;exitDx=0;exitDy=0;exitPerimeter=0;entryX=0.216;entryY=0.126;entryDx=0;entryDy=0;entryPerimeter=0;" parent="1" source="FXdh6BhFldK_UIfGFSgS-3" target="FXdh6BhFldK_UIfGFSgS-13" edge="1">
          <mxGeometry width="50" height="50" relative="1" as="geometry">
            <mxPoint x="170" y="73" as="sourcePoint" />
            <mxPoint x="230" y="103" as="targetPoint" />
          </mxGeometry>
        </mxCell>
        <mxCell id="FXdh6BhFldK_UIfGFSgS-18" value="spravovat konferenci" style="ellipse;whiteSpace=wrap;html=1;" parent="1" vertex="1">
          <mxGeometry x="170" y="545.5" width="120" height="35" as="geometry" />
        </mxCell>
        <mxCell id="FXdh6BhFldK_UIfGFSgS-19" value="" style="endArrow=classic;html=1;rounded=0;entryX=0;entryY=0.5;entryDx=0;entryDy=0;exitX=1;exitY=0.3333333333333333;exitDx=0;exitDy=0;exitPerimeter=0;" parent="1" source="FXdh6BhFldK_UIfGFSgS-1" target="FXdh6BhFldK_UIfGFSgS-18" edge="1">
          <mxGeometry width="50" height="50" relative="1" as="geometry">
            <mxPoint x="350" y="518" as="sourcePoint" />
            <mxPoint x="389" y="498" as="targetPoint" />
          </mxGeometry>
        </mxCell>
        <mxCell id="FXdh6BhFldK_UIfGFSgS-20" value="obsah" style="ellipse;whiteSpace=wrap;html=1;" parent="1" vertex="1">
          <mxGeometry x="330" y="518" width="120" height="35" as="geometry" />
        </mxCell>
        <mxCell id="FXdh6BhFldK_UIfGFSgS-21" value="místnosti" style="ellipse;whiteSpace=wrap;html=1;" parent="1" vertex="1">
          <mxGeometry x="330" y="563" width="120" height="35" as="geometry" />
        </mxCell>
        <mxCell id="FXdh6BhFldK_UIfGFSgS-22" value="" style="endArrow=classic;html=1;rounded=0;entryX=0;entryY=0.5;entryDx=0;entryDy=0;exitX=1;exitY=0.5;exitDx=0;exitDy=0;" parent="1" source="FXdh6BhFldK_UIfGFSgS-18" target="FXdh6BhFldK_UIfGFSgS-20" edge="1">
          <mxGeometry width="50" height="50" relative="1" as="geometry">
            <mxPoint x="280" y="527.5" as="sourcePoint" />
            <mxPoint x="330" y="527.5" as="targetPoint" />
          </mxGeometry>
        </mxCell>
        <mxCell id="FXdh6BhFldK_UIfGFSgS-23" value="" style="endArrow=classic;html=1;rounded=0;entryX=0;entryY=0.5;entryDx=0;entryDy=0;exitX=0.992;exitY=0.705;exitDx=0;exitDy=0;exitPerimeter=0;" parent="1" source="FXdh6BhFldK_UIfGFSgS-18" target="FXdh6BhFldK_UIfGFSgS-21" edge="1">
          <mxGeometry width="50" height="50" relative="1" as="geometry">
            <mxPoint x="290" y="573" as="sourcePoint" />
            <mxPoint x="320" y="563" as="targetPoint" />
          </mxGeometry>
        </mxCell>
        <mxCell id="FXdh6BhFldK_UIfGFSgS-26" value="" style="endArrow=classic;html=1;rounded=0;exitX=0.962;exitY=0.794;exitDx=0;exitDy=0;exitPerimeter=0;entryX=0.032;entryY=0.327;entryDx=0;entryDy=0;entryPerimeter=0;" parent="1" target="FXdh6BhFldK_UIfGFSgS-27" edge="1">
          <mxGeometry width="50" height="50" relative="1" as="geometry">
            <mxPoint x="270" y="576.5" as="sourcePoint" />
            <mxPoint x="320" y="608" as="targetPoint" />
          </mxGeometry>
        </mxCell>
        <mxCell id="FXdh6BhFldK_UIfGFSgS-27" value="přednášející" style="ellipse;whiteSpace=wrap;html=1;" parent="1" vertex="1">
          <mxGeometry x="320" y="608" width="120" height="35" as="geometry" />
        </mxCell>
        <mxCell id="FXdh6BhFldK_UIfGFSgS-28" value="časový rozpis" style="ellipse;whiteSpace=wrap;html=1;" parent="1" vertex="1">
          <mxGeometry x="330" y="658" width="120" height="35" as="geometry" />
        </mxCell>
        <mxCell id="FXdh6BhFldK_UIfGFSgS-29" value="" style="endArrow=classic;html=1;rounded=0;exitX=0.796;exitY=0.976;exitDx=0;exitDy=0;exitPerimeter=0;entryX=0.023;entryY=0.309;entryDx=0;entryDy=0;entryPerimeter=0;" parent="1" source="FXdh6BhFldK_UIfGFSgS-18" target="FXdh6BhFldK_UIfGFSgS-28" edge="1">
          <mxGeometry width="50" height="50" relative="1" as="geometry">
            <mxPoint x="266" y="604.25" as="sourcePoint" />
            <mxPoint x="320" y="646.75" as="targetPoint" />
          </mxGeometry>
        </mxCell>
        <mxCell id="FXdh6BhFldK_UIfGFSgS-30" value="rezervace/vstupenky" style="ellipse;whiteSpace=wrap;html=1;" parent="1" vertex="1">
          <mxGeometry x="330" y="703" width="120" height="35" as="geometry" />
        </mxCell>
        <mxCell id="FXdh6BhFldK_UIfGFSgS-31" value="" style="endArrow=classic;html=1;rounded=0;exitX=0.75;exitY=0.929;exitDx=0;exitDy=0;exitPerimeter=0;entryX=0.006;entryY=0.307;entryDx=0;entryDy=0;entryPerimeter=0;" parent="1" source="FXdh6BhFldK_UIfGFSgS-18" target="FXdh6BhFldK_UIfGFSgS-30" edge="1">
          <mxGeometry width="50" height="50" relative="1" as="geometry">
            <mxPoint x="253" y="604" as="sourcePoint" />
            <mxPoint x="320" y="693" as="targetPoint" />
          </mxGeometry>
        </mxCell>
        <mxCell id="FXdh6BhFldK_UIfGFSgS-43" value="Reg. uživatel" style="shape=umlActor;verticalLabelPosition=bottom;verticalAlign=top;html=1;outlineConnect=0;" parent="1" vertex="1">
          <mxGeometry x="130" y="340" width="40" height="70" as="geometry" />
        </mxCell>
        <mxCell id="FXdh6BhFldK_UIfGFSgS-44" value="" style="endArrow=classic;html=1;rounded=0;exitX=0;exitY=0.3333333333333333;exitDx=0;exitDy=0;exitPerimeter=0;entryX=0.395;entryY=1.022;entryDx=0;entryDy=0;entryPerimeter=0;" parent="1" source="FXdh6BhFldK_UIfGFSgS-43" target="FXdh6BhFldK_UIfGFSgS-13" edge="1">
          <mxGeometry width="50" height="50" relative="1" as="geometry">
            <mxPoint x="520" y="97.5" as="sourcePoint" />
            <mxPoint x="590" y="92.5" as="targetPoint" />
          </mxGeometry>
        </mxCell>
        <mxCell id="FXdh6BhFldK_UIfGFSgS-45" value="založit konferenci" style="ellipse;whiteSpace=wrap;html=1;" parent="1" vertex="1">
          <mxGeometry x="280" y="400" width="120" height="35" as="geometry" />
        </mxCell>
        <mxCell id="FXdh6BhFldK_UIfGFSgS-46" value="" style="endArrow=classic;html=1;rounded=0;exitX=1;exitY=0.3333333333333333;exitDx=0;exitDy=0;exitPerimeter=0;entryX=0;entryY=0.5;entryDx=0;entryDy=0;" parent="1" source="FXdh6BhFldK_UIfGFSgS-43" target="FXdh6BhFldK_UIfGFSgS-45" edge="1">
          <mxGeometry width="50" height="50" relative="1" as="geometry">
            <mxPoint x="170" y="203" as="sourcePoint" />
            <mxPoint x="232" y="157" as="targetPoint" />
          </mxGeometry>
        </mxCell>
        <mxCell id="FXdh6BhFldK_UIfGFSgS-49" value="přednášející" style="shape=umlActor;verticalLabelPosition=bottom;verticalAlign=top;html=1;outlineConnect=0;" parent="1" vertex="1">
          <mxGeometry x="510" y="533" width="40" height="70" as="geometry" />
        </mxCell>
        <mxCell id="FXdh6BhFldK_UIfGFSgS-57" value="" style="endArrow=block;html=1;rounded=0;endFill=0;" parent="1" edge="1">
          <mxGeometry width="50" height="50" relative="1" as="geometry">
            <mxPoint x="150" y="508" as="sourcePoint" />
            <mxPoint x="150" y="438" as="targetPoint" />
          </mxGeometry>
        </mxCell>
        <mxCell id="FXdh6BhFldK_UIfGFSgS-58" value="" style="endArrow=none;html=1;rounded=0;" parent="1" edge="1">
          <mxGeometry width="50" height="50" relative="1" as="geometry">
            <mxPoint x="120" y="508" as="sourcePoint" />
            <mxPoint x="150" y="508" as="targetPoint" />
          </mxGeometry>
        </mxCell>
        <mxCell id="FXdh6BhFldK_UIfGFSgS-59" value="" style="endArrow=none;html=1;rounded=0;exitX=0.5;exitY=0;exitDx=0;exitDy=0;exitPerimeter=0;" parent="1" source="FXdh6BhFldK_UIfGFSgS-1" edge="1">
          <mxGeometry width="50" height="50" relative="1" as="geometry">
            <mxPoint x="130" y="518" as="sourcePoint" />
            <mxPoint x="120" y="508" as="targetPoint" />
          </mxGeometry>
        </mxCell>
        <mxCell id="FXdh6BhFldK_UIfGFSgS-60" value="" style="endArrow=none;html=1;rounded=0;" parent="1" edge="1">
          <mxGeometry width="50" height="50" relative="1" as="geometry">
            <mxPoint x="150" y="508" as="sourcePoint" />
            <mxPoint x="530" y="508" as="targetPoint" />
          </mxGeometry>
        </mxCell>
        <mxCell id="FXdh6BhFldK_UIfGFSgS-62" value="" style="endArrow=none;html=1;rounded=0;exitX=0.5;exitY=0;exitDx=0;exitDy=0;exitPerimeter=0;" parent="1" edge="1">
          <mxGeometry width="50" height="50" relative="1" as="geometry">
            <mxPoint x="529.76" y="533" as="sourcePoint" />
            <mxPoint x="529.76" y="508" as="targetPoint" />
          </mxGeometry>
        </mxCell>
        <mxCell id="FXdh6BhFldK_UIfGFSgS-63" value="" style="endArrow=none;html=1;rounded=0;exitX=0.5;exitY=0;exitDx=0;exitDy=0;exitPerimeter=0;" parent="1" source="FXdh6BhFldK_UIfGFSgS-65" edge="1">
          <mxGeometry width="50" height="50" relative="1" as="geometry">
            <mxPoint x="759.94" y="528" as="sourcePoint" />
            <mxPoint x="760" y="508" as="targetPoint" />
          </mxGeometry>
        </mxCell>
        <mxCell id="FXdh6BhFldK_UIfGFSgS-64" value="" style="endArrow=none;html=1;rounded=0;" parent="1" edge="1">
          <mxGeometry width="50" height="50" relative="1" as="geometry">
            <mxPoint x="520" y="508" as="sourcePoint" />
            <mxPoint x="760" y="508" as="targetPoint" />
          </mxGeometry>
        </mxCell>
        <mxCell id="FXdh6BhFldK_UIfGFSgS-65" value="návštěvník" style="shape=umlActor;verticalLabelPosition=bottom;verticalAlign=top;html=1;outlineConnect=0;" parent="1" vertex="1">
          <mxGeometry x="740" y="533" width="40" height="70" as="geometry" />
        </mxCell>
        <mxCell id="FXdh6BhFldK_UIfGFSgS-66" value="" style="endArrow=classic;html=1;rounded=0;exitX=1;exitY=0.3333333333333333;exitDx=0;exitDy=0;exitPerimeter=0;entryX=0;entryY=0.5;entryDx=0;entryDy=0;" parent="1" source="FXdh6BhFldK_UIfGFSgS-49" edge="1">
          <mxGeometry width="50" height="50" relative="1" as="geometry">
            <mxPoint x="560" y="553" as="sourcePoint" />
            <mxPoint x="580.0000000000023" y="545.5000000000001" as="targetPoint" />
          </mxGeometry>
        </mxCell>
        <mxCell id="FXdh6BhFldK_UIfGFSgS-69" value="zobrazit svůj rozpis přednášek" style="ellipse;whiteSpace=wrap;html=1;" parent="1" vertex="1">
          <mxGeometry x="580" y="528" width="150" height="35" as="geometry" />
        </mxCell>
        <mxCell id="FXdh6BhFldK_UIfGFSgS-71" value="" style="endArrow=classic;html=1;rounded=0;exitX=1;exitY=0.3333333333333333;exitDx=0;exitDy=0;exitPerimeter=0;entryX=0;entryY=0.5;entryDx=0;entryDy=0;" parent="1" source="FXdh6BhFldK_UIfGFSgS-43" target="13" edge="1">
          <mxGeometry width="50" height="50" relative="1" as="geometry">
            <mxPoint x="560" y="566" as="sourcePoint" />
            <mxPoint x="582.2499999999998" y="584.2350000000001" as="targetPoint" />
          </mxGeometry>
        </mxCell>
        <mxCell id="FXdh6BhFldK_UIfGFSgS-72" value="zobrazit stav rezervací" style="ellipse;whiteSpace=wrap;html=1;" parent="1" vertex="1">
          <mxGeometry x="820" y="518" width="150" height="35" as="geometry" />
        </mxCell>
        <mxCell id="FXdh6BhFldK_UIfGFSgS-73" value="" style="endArrow=classic;html=1;rounded=0;exitX=1;exitY=0.3333333333333333;exitDx=0;exitDy=0;exitPerimeter=0;entryX=0.01;entryY=0.656;entryDx=0;entryDy=0;entryPerimeter=0;" parent="1" source="FXdh6BhFldK_UIfGFSgS-65" target="FXdh6BhFldK_UIfGFSgS-72" edge="1">
          <mxGeometry width="50" height="50" relative="1" as="geometry">
            <mxPoint x="850" y="598" as="sourcePoint" />
            <mxPoint x="880.0000000000023" y="587.5000000000001" as="targetPoint" />
          </mxGeometry>
        </mxCell>
        <mxCell id="2" value="přihlásit se" style="ellipse;whiteSpace=wrap;html=1;" parent="1" vertex="1">
          <mxGeometry x="280" y="350" width="120" height="35" as="geometry" />
        </mxCell>
        <mxCell id="3" value="" style="endArrow=classic;html=1;rounded=0;exitX=1;exitY=0.3333333333333333;exitDx=0;exitDy=0;exitPerimeter=0;entryX=0;entryY=0.5;entryDx=0;entryDy=0;" parent="1" source="FXdh6BhFldK_UIfGFSgS-43" target="2" edge="1">
          <mxGeometry width="50" height="50" relative="1" as="geometry">
            <mxPoint x="220" y="320" as="sourcePoint" />
            <mxPoint x="270" y="270" as="targetPoint" />
          </mxGeometry>
        </mxCell>
        <mxCell id="5" value="" style="endArrow=classic;html=1;rounded=0;exitX=1;exitY=0.3333333333333333;exitDx=0;exitDy=0;exitPerimeter=0;entryX=0;entryY=0;entryDx=0;entryDy=0;" parent="1" source="FXdh6BhFldK_UIfGFSgS-3" target="FXdh6BhFldK_UIfGFSgS-5" edge="1">
          <mxGeometry width="50" height="50" relative="1" as="geometry">
            <mxPoint x="160" y="70" as="sourcePoint" />
            <mxPoint x="430" y="240" as="targetPoint" />
          </mxGeometry>
        </mxCell>
        <mxCell id="6" value="zobrazit detail konference" style="ellipse;whiteSpace=wrap;html=1;" parent="1" vertex="1">
          <mxGeometry x="450" y="232.5" width="120" height="35" as="geometry" />
        </mxCell>
        <mxCell id="7" value="" style="endArrow=classic;html=1;rounded=0;exitX=1;exitY=0.3333333333333333;exitDx=0;exitDy=0;exitPerimeter=0;entryX=0.5;entryY=0;entryDx=0;entryDy=0;" parent="1" source="FXdh6BhFldK_UIfGFSgS-3" target="6" edge="1">
          <mxGeometry width="50" height="50" relative="1" as="geometry">
            <mxPoint x="290" y="260" as="sourcePoint" />
            <mxPoint x="340" y="210" as="targetPoint" />
          </mxGeometry>
        </mxCell>
        <mxCell id="8" value="" style="endArrow=classic;html=1;rounded=0;exitX=1;exitY=0.3333333333333333;exitDx=0;exitDy=0;exitPerimeter=0;entryX=0;entryY=1;entryDx=0;entryDy=0;" parent="1" source="FXdh6BhFldK_UIfGFSgS-43" target="6" edge="1">
          <mxGeometry width="50" height="50" relative="1" as="geometry">
            <mxPoint x="540" y="370" as="sourcePoint" />
            <mxPoint x="590" y="320" as="targetPoint" />
          </mxGeometry>
        </mxCell>
        <mxCell id="9" value="zobrazit osobní rozvrh" style="ellipse;whiteSpace=wrap;html=1;" parent="1" vertex="1">
          <mxGeometry x="820" y="573" width="150" height="35" as="geometry" />
        </mxCell>
        <mxCell id="10" value="editovat osobní rozvrh" style="ellipse;whiteSpace=wrap;html=1;" parent="1" vertex="1">
          <mxGeometry x="820" y="630" width="150" height="35" as="geometry" />
        </mxCell>
        <mxCell id="11" value="" style="endArrow=classic;html=1;rounded=0;exitX=1;exitY=0.3333333333333333;exitDx=0;exitDy=0;exitPerimeter=0;entryX=0;entryY=0.5;entryDx=0;entryDy=0;" parent="1" source="FXdh6BhFldK_UIfGFSgS-65" target="9" edge="1">
          <mxGeometry width="50" height="50" relative="1" as="geometry">
            <mxPoint x="860" y="580" as="sourcePoint" />
            <mxPoint x="910" y="530" as="targetPoint" />
          </mxGeometry>
        </mxCell>
        <mxCell id="12" value="" style="endArrow=classic;html=1;rounded=0;exitX=1;exitY=0.3333333333333333;exitDx=0;exitDy=0;exitPerimeter=0;entryX=0;entryY=0.5;entryDx=0;entryDy=0;" parent="1" source="FXdh6BhFldK_UIfGFSgS-65" target="10" edge="1">
          <mxGeometry width="50" height="50" relative="1" as="geometry">
            <mxPoint x="860" y="580" as="sourcePoint" />
            <mxPoint x="910" y="530" as="targetPoint" />
          </mxGeometry>
        </mxCell>
        <mxCell id="13" value="Zaslat návrh ppt&lt;div&gt;ke konferenci&lt;/div&gt;" style="ellipse;whiteSpace=wrap;html=1;" parent="1" vertex="1">
          <mxGeometry x="265" y="450" width="150" height="35" as="geometry" />
        </mxCell>
        <mxCell id="OIYgwAdHNnDXXWFVbf8F-13" value="" style="endArrow=classic;html=1;rounded=0;" edge="1" parent="1">
          <mxGeometry width="50" height="50" relative="1" as="geometry">
            <mxPoint x="120" y="840" as="sourcePoint" />
            <mxPoint x="120" y="640" as="targetPoint" />
          </mxGeometry>
        </mxCell>
        <mxCell id="OIYgwAdHNnDXXWFVbf8F-14" value="" style="endArrow=classic;html=1;rounded=0;" edge="1" parent="1">
          <mxGeometry width="50" height="50" relative="1" as="geometry">
            <mxPoint x="120" y="840" as="sourcePoint" />
            <mxPoint x="530" y="630" as="targetPoint" />
            <Array as="points">
              <mxPoint x="530" y="840" />
            </Array>
          </mxGeometry>
        </mxCell>
        <mxCell id="OIYgwAdHNnDXXWFVbf8F-15" value="" style="endArrow=classic;html=1;rounded=0;" edge="1" parent="1">
          <mxGeometry width="50" height="50" relative="1" as="geometry">
            <mxPoint x="530" y="840" as="sourcePoint" />
            <mxPoint x="760" y="640" as="targetPoint" />
            <Array as="points">
              <mxPoint x="760" y="840" />
            </Array>
          </mxGeometry>
        </mxCell>
        <mxCell id="OIYgwAdHNnDXXWFVbf8F-16" value="administrátor" style="shape=umlActor;verticalLabelPosition=bottom;verticalAlign=top;html=1;outlineConnect=0;" vertex="1" parent="1">
          <mxGeometry x="510" y="940" width="40" height="70" as="geometry" />
        </mxCell>
        <mxCell id="OIYgwAdHNnDXXWFVbf8F-17" value="" style="endArrow=classic;html=1;rounded=0;entryX=0;entryY=0.5;entryDx=0;entryDy=0;exitX=1;exitY=0.3333333333333333;exitDx=0;exitDy=0;exitPerimeter=0;" edge="1" parent="1" source="OIYgwAdHNnDXXWFVbf8F-16" target="OIYgwAdHNnDXXWFVbf8F-19">
          <mxGeometry width="50" height="50" relative="1" as="geometry">
            <mxPoint x="760" y="925" as="sourcePoint" />
            <mxPoint x="580" y="970" as="targetPoint" />
          </mxGeometry>
        </mxCell>
        <mxCell id="OIYgwAdHNnDXXWFVbf8F-18" value="" style="endArrow=none;html=1;rounded=0;" edge="1" parent="1">
          <mxGeometry width="50" height="50" relative="1" as="geometry">
            <mxPoint x="530" y="930" as="sourcePoint" />
            <mxPoint x="530" y="840" as="targetPoint" />
          </mxGeometry>
        </mxCell>
        <mxCell id="OIYgwAdHNnDXXWFVbf8F-19" value="vytvoření administrátorů" style="ellipse;whiteSpace=wrap;html=1;" vertex="1" parent="1">
          <mxGeometry x="650" y="870" width="150" height="35" as="geometry" />
        </mxCell>
        <mxCell id="OIYgwAdHNnDXXWFVbf8F-20" value="vytvoření a správa místností" style="ellipse;whiteSpace=wrap;html=1;" vertex="1" parent="1">
          <mxGeometry x="650" y="920" width="150" height="35" as="geometry" />
        </mxCell>
        <mxCell id="OIYgwAdHNnDXXWFVbf8F-21" value="editace a mazání&lt;div&gt;uživatelů&lt;/div&gt;" style="ellipse;whiteSpace=wrap;html=1;" vertex="1" parent="1">
          <mxGeometry x="650" y="980" width="150" height="35" as="geometry" />
        </mxCell>
        <mxCell id="OIYgwAdHNnDXXWFVbf8F-22" value="" style="endArrow=classic;html=1;rounded=0;exitX=1;exitY=0.3333333333333333;exitDx=0;exitDy=0;exitPerimeter=0;entryX=0;entryY=0.5;entryDx=0;entryDy=0;" edge="1" parent="1" source="OIYgwAdHNnDXXWFVbf8F-16" target="OIYgwAdHNnDXXWFVbf8F-20">
          <mxGeometry width="50" height="50" relative="1" as="geometry">
            <mxPoint x="660" y="1000" as="sourcePoint" />
            <mxPoint x="710" y="950" as="targetPoint" />
          </mxGeometry>
        </mxCell>
        <mxCell id="OIYgwAdHNnDXXWFVbf8F-23" value="" style="endArrow=classic;html=1;rounded=0;exitX=1;exitY=0.3333333333333333;exitDx=0;exitDy=0;exitPerimeter=0;entryX=0;entryY=0.5;entryDx=0;entryDy=0;" edge="1" parent="1" source="OIYgwAdHNnDXXWFVbf8F-16" target="OIYgwAdHNnDXXWFVbf8F-21">
          <mxGeometry width="50" height="50" relative="1" as="geometry">
            <mxPoint x="660" y="1000" as="sourcePoint" />
            <mxPoint x="710" y="950" as="targetPoint" />
          </mxGeometry>
        </mxCell>
        <mxCell id="OIYgwAdHNnDXXWFVbf8F-24" value="zobrazení rozvrhu&lt;div&gt;vytvořené přednášky&lt;/div&gt;" style="ellipse;whiteSpace=wrap;html=1;" vertex="1" parent="1">
          <mxGeometry x="280" y="750" width="150" height="35" as="geometry" />
        </mxCell>
        <mxCell id="OIYgwAdHNnDXXWFVbf8F-25" value="" style="endArrow=classic;html=1;rounded=0;exitX=1;exitY=0.3333333333333333;exitDx=0;exitDy=0;exitPerimeter=0;entryX=0.2;entryY=0;entryDx=0;entryDy=0;entryPerimeter=0;" edge="1" parent="1" source="FXdh6BhFldK_UIfGFSgS-1" target="OIYgwAdHNnDXXWFVbf8F-24">
          <mxGeometry width="50" height="50" relative="1" as="geometry">
            <mxPoint x="140" y="557" as="sourcePoint" />
            <mxPoint x="230" y="690" as="targetPoint" />
          </mxGeometry>
        </mxCell>
        <mxCell id="OIYgwAdHNnDXXWFVbf8F-26" value="potvrzení zaplacení rezervace se zaplacením na místě" style="ellipse;whiteSpace=wrap;html=1;" vertex="1" parent="1">
          <mxGeometry x="140" y="785" width="220" height="45" as="geometry" />
        </mxCell>
        <mxCell id="OIYgwAdHNnDXXWFVbf8F-27" value="" style="endArrow=classic;html=1;rounded=0;exitX=1;exitY=0.3333333333333333;exitDx=0;exitDy=0;exitPerimeter=0;" edge="1" parent="1" source="FXdh6BhFldK_UIfGFSgS-1">
          <mxGeometry width="50" height="50" relative="1" as="geometry">
            <mxPoint x="150" y="566" as="sourcePoint" />
            <mxPoint x="210" y="780" as="targetPoint" />
          </mxGeometry>
        </mxCell>
        <mxCell id="OIYgwAdHNnDXXWFVbf8F-28" value="zobrazit mé návrhy&lt;div&gt;prezentací&lt;/div&gt;" style="ellipse;whiteSpace=wrap;html=1;" vertex="1" parent="1">
          <mxGeometry x="570" y="573" width="150" height="35" as="geometry" />
        </mxCell>
        <mxCell id="OIYgwAdHNnDXXWFVbf8F-29" value="" style="endArrow=classic;html=1;rounded=0;exitX=1;exitY=0.3333333333333333;exitDx=0;exitDy=0;exitPerimeter=0;entryX=0.052;entryY=0.264;entryDx=0;entryDy=0;entryPerimeter=0;" edge="1" parent="1" source="FXdh6BhFldK_UIfGFSgS-49" target="OIYgwAdHNnDXXWFVbf8F-28">
          <mxGeometry width="50" height="50" relative="1" as="geometry">
            <mxPoint x="560" y="566" as="sourcePoint" />
            <mxPoint x="590.0000000000023" y="555.5000000000001" as="targetPoint" />
          </mxGeometry>
        </mxCell>
        <mxCell id="OIYgwAdHNnDXXWFVbf8F-30" value="úprava vytvořených&amp;nbsp;&lt;div&gt;konferencí&lt;/div&gt;" style="ellipse;whiteSpace=wrap;html=1;" vertex="1" parent="1">
          <mxGeometry x="-110" y="510" width="160" height="43" as="geometry" />
        </mxCell>
        <mxCell id="OIYgwAdHNnDXXWFVbf8F-31" value="potvrzení návrhu&lt;div&gt;prezentace&lt;/div&gt;" style="ellipse;whiteSpace=wrap;html=1;" vertex="1" parent="1">
          <mxGeometry x="-110" y="565" width="160" height="33" as="geometry" />
        </mxCell>
        <mxCell id="OIYgwAdHNnDXXWFVbf8F-32" value="" style="endArrow=classic;html=1;rounded=0;entryX=1.018;entryY=0.555;entryDx=0;entryDy=0;exitX=0;exitY=0.3333333333333333;exitDx=0;exitDy=0;exitPerimeter=0;entryPerimeter=0;" edge="1" parent="1" source="FXdh6BhFldK_UIfGFSgS-1" target="OIYgwAdHNnDXXWFVbf8F-30">
          <mxGeometry width="50" height="50" relative="1" as="geometry">
            <mxPoint x="150" y="566" as="sourcePoint" />
            <mxPoint x="180" y="573" as="targetPoint" />
          </mxGeometry>
        </mxCell>
        <mxCell id="OIYgwAdHNnDXXWFVbf8F-33" value="" style="endArrow=classic;html=1;rounded=0;entryX=1.016;entryY=0.453;entryDx=0;entryDy=0;exitX=0;exitY=0.3333333333333333;exitDx=0;exitDy=0;exitPerimeter=0;entryPerimeter=0;" edge="1" parent="1" source="FXdh6BhFldK_UIfGFSgS-1" target="OIYgwAdHNnDXXWFVbf8F-31">
          <mxGeometry width="50" height="50" relative="1" as="geometry">
            <mxPoint x="110" y="566" as="sourcePoint" />
            <mxPoint x="63" y="544" as="targetPoint" />
          </mxGeometry>
        </mxCell>
        <mxCell id="OIYgwAdHNnDXXWFVbf8F-34" value="vytvoření přednášek&amp;nbsp;&lt;div&gt;v rámci konference&lt;/div&gt;" style="ellipse;whiteSpace=wrap;html=1;" vertex="1" parent="1">
          <mxGeometry x="-110" y="615" width="160" height="43" as="geometry" />
        </mxCell>
        <mxCell id="OIYgwAdHNnDXXWFVbf8F-35" value="" style="endArrow=classic;html=1;rounded=0;entryX=1;entryY=0.5;entryDx=0;entryDy=0;exitX=0;exitY=0.3333333333333333;exitDx=0;exitDy=0;exitPerimeter=0;" edge="1" parent="1" source="FXdh6BhFldK_UIfGFSgS-1" target="OIYgwAdHNnDXXWFVbf8F-34">
          <mxGeometry width="50" height="50" relative="1" as="geometry">
            <mxPoint x="100" y="560" as="sourcePoint" />
            <mxPoint x="63" y="590" as="targetPoint" />
          </mxGeometry>
        </mxCell>
      </root>
    </mxGraphModel>
  </diagram>
</mxfile>
